<?xml version="1.0" encoding="UTF-8" standalone="no"?><svg xmlns="http://www.w3.org/2000/svg" xmlns:xlink="http://www.w3.org/1999/xlink" contentScriptType="application/ecmascript" contentStyleType="text/css" height="620px" preserveAspectRatio="none" style="width:1138px;height:620px;" version="1.1" viewBox="0 0 1138 620" width="1138px" zoomAndPan="magnify"><defs><filter height="300%" id="fm8qnc4koximi" width="300%" x="-1" y="-1"><feGaussianBlur result="blurOut" stdDeviation="2.0"/><feColorMatrix in="blurOut" result="blurOut2" type="matrix" values="0 0 0 0 0 0 0 0 0 0 0 0 0 0 0 0 0 0 .4 0"/><feOffset dx="4.0" dy="4.0" in="blurOut2" result="blurOut3"/><feBlend in="SourceGraphic" in2="blurOut3" mode="normal"/></filter></defs><g><!--MD5=[cbfa7026d6ffbe682885bfadc514547d]
class IOutput--><rect fill="#FEFECE" filter="url(#fm8qnc4koximi)" height="79.5469" id="IOutput" style="stroke: #A80036; stroke-width: 1.5;" width="130" x="136.8" y="530"/><ellipse cx="168.9" cy="548.9688" fill="#B4A7E5" rx="11" ry="11" style="stroke: #A80036; stroke-width: 1.0;"/><path d="M164.8219,544.7344 L164.8219,542.5781 L172.2125,542.5781 L172.2125,544.7344 L169.7438,544.7344 L169.7438,552.8125 L172.2125,552.8125 L172.2125,554.9688 L164.8219,554.9688 L164.8219,552.8125 L167.2906,552.8125 L167.2906,544.7344 L164.8219,544.7344 Z "/><text fill="#000000" font-family="sans-serif" font-size="12" font-style="italic" lengthAdjust="spacingAndGlyphs" textLength="63" x="185.2" y="546.1387">«parcel _»</text><text fill="#000000" font-family="sans-serif" font-size="12" font-style="italic" lengthAdjust="spacingAndGlyphs" textLength="60" x="186.7" y="560.1074">output / _</text><line style="stroke: #A80036; stroke-width: 1.5;" x1="137.8" x2="265.8" y1="567.9375" y2="567.9375"/><text fill="#000000" font-family="sans-serif" font-size="11" lengthAdjust="spacingAndGlyphs" textLength="118" x="142.8" y="582.1479">+{typedef} Greeting</text><text fill="#000000" font-family="sans-serif" font-size="11" lengthAdjust="spacingAndGlyphs" textLength="107" x="142.8" y="594.9526">+{typedef} Output</text><line style="stroke: #A80036; stroke-width: 1.5;" x1="137.8" x2="265.8" y1="601.5469" y2="601.5469"/><path d="M301.8,542.5 L301.8,566 L267.25,570 L301.8,574 L301.8,597.8984 A0,0 0 0 0 301.8,597.8984 L573.8,597.8984 A0,0 0 0 0 573.8,597.8984 L573.8,552.5 L563.8,542.5 L301.8,542.5 A0,0 0 0 0 301.8,542.5 " fill="#FBFB77" filter="url(#fm8qnc4koximi)" style="stroke: #A80036; stroke-width: 1.0;"/><path d="M563.8,542.5 L563.8,552.5 L573.8,552.5 L563.8,542.5 " fill="#FBFB77" style="stroke: #A80036; stroke-width: 1.0;"/><text fill="#000000" font-family="sans-serif" font-size="13" lengthAdjust="spacingAndGlyphs" textLength="53" x="307.8" y="559.5669">output.c</text><text fill="#000000" font-family="sans-serif" font-size="13" lengthAdjust="spacingAndGlyphs" textLength="12" x="307.8" y="574.6997">1.</text><text fill="#000000" font-family="sans-serif" font-size="13" lengthAdjust="spacingAndGlyphs" textLength="235" x="323.8" y="574.6997">pragma parcel _ { Greeting Output }</text><text fill="#000000" font-family="sans-serif" font-size="13" lengthAdjust="spacingAndGlyphs" textLength="98" x="307.8" y="589.8325">export/output/_</text><!--MD5=[d71eaca3c97c973790d9a5c91db666bb]
class Stdout--><rect fill="#FEFECE" filter="url(#fm8qnc4koximi)" height="66.7422" id="Stdout" style="stroke: #A80036; stroke-width: 1.5;" width="232" x="85.8" y="384"/><ellipse cx="150.05" cy="402.9688" fill="#ADD1B2" rx="11" ry="11" style="stroke: #A80036; stroke-width: 1.0;"/><path d="M153.0188,408.6094 Q152.4406,408.9063 151.8,409.0469 Q151.1594,409.2031 150.4563,409.2031 Q147.9563,409.2031 146.6281,407.5625 Q145.3156,405.9063 145.3156,402.7813 Q145.3156,399.6563 146.6281,398 Q147.9563,396.3438 150.4563,396.3438 Q151.1594,396.3438 151.8,396.5 Q152.4563,396.6563 153.0188,396.9531 L153.0188,399.6719 Q152.3938,399.0938 151.8,398.8281 Q151.2063,398.5469 150.5813,398.5469 Q149.2375,398.5469 148.55,399.625 Q147.8625,400.6875 147.8625,402.7813 Q147.8625,404.875 148.55,405.9531 Q149.2375,407.0156 150.5813,407.0156 Q151.2063,407.0156 151.8,406.75 Q152.3938,406.4688 153.0188,405.8906 L153.0188,408.6094 Z "/><text fill="#000000" font-family="sans-serif" font-size="12" font-style="italic" lengthAdjust="spacingAndGlyphs" textLength="98" x="169.05" y="400.1387">«parcel stdout»</text><text fill="#000000" font-family="sans-serif" font-size="12" lengthAdjust="spacingAndGlyphs" textLength="95" x="170.55" y="414.1074">output / stdout</text><line style="stroke: #A80036; stroke-width: 1.5;" x1="86.8" x2="316.8" y1="421.9375" y2="421.9375"/><line style="stroke: #A80036; stroke-width: 1.5;" x1="86.8" x2="316.8" y1="429.9375" y2="429.9375"/><text fill="#000000" font-family="sans-serif" font-size="11" lengthAdjust="spacingAndGlyphs" textLength="220" x="91.8" y="444.1479">+output(greeting : out_Greeting) : void</text><path d="M353.3,382 L353.3,413.5 L317.93,417.5 L353.3,421.5 L353.3,452.5313 A0,0 0 0 0 353.3,452.5313 L598.3,452.5313 A0,0 0 0 0 598.3,452.5313 L598.3,392 L588.3,382 L353.3,382 A0,0 0 0 0 353.3,382 " fill="#FBFB77" filter="url(#fm8qnc4koximi)" style="stroke: #A80036; stroke-width: 1.0;"/><path d="M588.3,382 L588.3,392 L598.3,392 L588.3,382 " fill="#FBFB77" style="stroke: #A80036; stroke-width: 1.0;"/><text fill="#000000" font-family="sans-serif" font-size="13" lengthAdjust="spacingAndGlyphs" textLength="98" x="359.3" y="399.0669">output/stdout.c</text><text fill="#000000" font-family="sans-serif" font-size="13" lengthAdjust="spacingAndGlyphs" textLength="124" x="359.3" y="414.1997">import/output/_.out</text><text fill="#000000" font-family="sans-serif" font-size="13" lengthAdjust="spacingAndGlyphs" textLength="12" x="359.3" y="429.3325">1.</text><text fill="#000000" font-family="sans-serif" font-size="13" lengthAdjust="spacingAndGlyphs" textLength="208" x="375.3" y="429.3325">pragma parcel stdout { output }</text><text fill="#000000" font-family="sans-serif" font-size="13" lengthAdjust="spacingAndGlyphs" textLength="132" x="359.3" y="444.4653">export/output/stdout</text><!--MD5=[c330aa171b4ae5600de6569adaab31c4]
class Null--><rect fill="#FEFECE" filter="url(#fm8qnc4koximi)" height="66.7422" id="Null" style="stroke: #A80036; stroke-width: 1.5;" width="232" x="633.8" y="384"/><ellipse cx="707.55" cy="402.9688" fill="#ADD1B2" rx="11" ry="11" style="stroke: #A80036; stroke-width: 1.0;"/><path d="M710.5188,408.6094 Q709.9406,408.9063 709.3,409.0469 Q708.6594,409.2031 707.9563,409.2031 Q705.4563,409.2031 704.1281,407.5625 Q702.8156,405.9063 702.8156,402.7813 Q702.8156,399.6563 704.1281,398 Q705.4563,396.3438 707.9563,396.3438 Q708.6594,396.3438 709.3,396.5 Q709.9563,396.6563 710.5188,396.9531 L710.5188,399.6719 Q709.8938,399.0938 709.3,398.8281 Q708.7063,398.5469 708.0813,398.5469 Q706.7375,398.5469 706.05,399.625 Q705.3625,400.6875 705.3625,402.7813 Q705.3625,404.875 706.05,405.9531 Q706.7375,407.0156 708.0813,407.0156 Q708.7063,407.0156 709.3,406.75 Q709.8938,406.4688 710.5188,405.8906 L710.5188,408.6094 Z "/><text fill="#000000" font-family="sans-serif" font-size="12" font-style="italic" lengthAdjust="spacingAndGlyphs" textLength="79" x="726.55" y="400.1387">«parcel null»</text><text fill="#000000" font-family="sans-serif" font-size="12" lengthAdjust="spacingAndGlyphs" textLength="76" x="728.05" y="414.1074">output / null</text><line style="stroke: #A80036; stroke-width: 1.5;" x1="634.8" x2="864.8" y1="421.9375" y2="421.9375"/><line style="stroke: #A80036; stroke-width: 1.5;" x1="634.8" x2="864.8" y1="429.9375" y2="429.9375"/><text fill="#000000" font-family="sans-serif" font-size="11" lengthAdjust="spacingAndGlyphs" textLength="220" x="639.8" y="444.1479">+output(greeting : out_Greeting) : void</text><path d="M900.8,382 L900.8,413.5 L865.82,417.5 L900.8,421.5 L900.8,452.5313 A0,0 0 0 0 900.8,452.5313 L1126.8,452.5313 A0,0 0 0 0 1126.8,452.5313 L1126.8,392 L1116.8,382 L900.8,382 A0,0 0 0 0 900.8,382 " fill="#FBFB77" filter="url(#fm8qnc4koximi)" style="stroke: #A80036; stroke-width: 1.0;"/><path d="M1116.8,382 L1116.8,392 L1126.8,392 L1116.8,382 " fill="#FBFB77" style="stroke: #A80036; stroke-width: 1.0;"/><text fill="#000000" font-family="sans-serif" font-size="13" lengthAdjust="spacingAndGlyphs" textLength="79" x="906.8" y="399.0669">output/null.c</text><text fill="#000000" font-family="sans-serif" font-size="13" lengthAdjust="spacingAndGlyphs" textLength="124" x="906.8" y="414.1997">import/output/_.out</text><text fill="#000000" font-family="sans-serif" font-size="13" lengthAdjust="spacingAndGlyphs" textLength="12" x="906.8" y="429.3325">1.</text><text fill="#000000" font-family="sans-serif" font-size="13" lengthAdjust="spacingAndGlyphs" textLength="189" x="922.8" y="429.3325">pragma parcel null { output }</text><text fill="#000000" font-family="sans-serif" font-size="13" lengthAdjust="spacingAndGlyphs" textLength="113" x="906.8" y="444.4653">export/output/null</text><!--MD5=[d10018d7374cb536a2ec2f77e731452b]
class Header--><rect fill="#FEFECE" filter="url(#fm8qnc4koximi)" height="79.5469" id="Header" style="stroke: #A80036; stroke-width: 1.5;" width="155" x="124.3" y="184.5"/><ellipse cx="170.05" cy="203.4688" fill="#ADD1B2" rx="11" ry="11" style="stroke: #A80036; stroke-width: 1.0;"/><path d="M173.0188,209.1094 Q172.4406,209.4063 171.8,209.5469 Q171.1594,209.7031 170.4563,209.7031 Q167.9563,209.7031 166.6281,208.0625 Q165.3156,206.4063 165.3156,203.2813 Q165.3156,200.1563 166.6281,198.5 Q167.9563,196.8438 170.4563,196.8438 Q171.1594,196.8438 171.8,197 Q172.4563,197.1563 173.0188,197.4531 L173.0188,200.1719 Q172.3938,199.5938 171.8,199.3281 Q171.2063,199.0469 170.5813,199.0469 Q169.2375,199.0469 168.55,200.125 Q167.8625,201.1875 167.8625,203.2813 Q167.8625,205.375 168.55,206.4531 Q169.2375,207.5156 170.5813,207.5156 Q171.2063,207.5156 171.8,207.25 Q172.3938,206.9688 173.0188,206.3906 L173.0188,209.1094 Z "/><text fill="#000000" font-family="sans-serif" font-size="12" font-style="italic" lengthAdjust="spacingAndGlyphs" textLength="59" x="188.55" y="200.6387">«header»</text><text fill="#000000" font-family="sans-serif" font-size="12" lengthAdjust="spacingAndGlyphs" textLength="54" x="191.05" y="214.6074">output.h</text><line style="stroke: #A80036; stroke-width: 1.5;" x1="125.3" x2="278.3" y1="222.4375" y2="222.4375"/><text fill="#000000" font-family="sans-serif" font-size="11" lengthAdjust="spacingAndGlyphs" textLength="143" x="130.3" y="236.6479">+{macro} OUTPUT_NULL</text><text fill="#000000" font-family="sans-serif" font-size="11" lengthAdjust="spacingAndGlyphs" textLength="87" x="130.3" y="249.4526">+{macro} OUT</text><line style="stroke: #A80036; stroke-width: 1.5;" x1="125.3" x2="278.3" y1="256.0469" y2="256.0469"/><path d="M314.8,159 L314.8,220.5 L279.47,224.5 L314.8,228.5 L314.8,290.0625 A0,0 0 0 0 314.8,290.0625 L570.8,290.0625 A0,0 0 0 0 570.8,290.0625 L570.8,169 L560.8,159 L314.8,159 A0,0 0 0 0 314.8,159 " fill="#FBFB77" filter="url(#fm8qnc4koximi)" style="stroke: #A80036; stroke-width: 1.0;"/><path d="M560.8,159 L560.8,169 L570.8,169 L560.8,159 " fill="#FBFB77" style="stroke: #A80036; stroke-width: 1.0;"/><text fill="#000000" font-family="sans-serif" font-size="13" lengthAdjust="spacingAndGlyphs" textLength="12" x="320.8" y="176.0669">1.</text><text fill="#000000" font-family="sans-serif" font-size="13" lengthAdjust="spacingAndGlyphs" textLength="183" x="336.8" y="176.0669">include "import/output/_.out"</text><text fill="#000000" font-family="sans-serif" font-size="13" lengthAdjust="spacingAndGlyphs" textLength="12" x="320.8" y="191.1997">2.</text><text fill="#000000" font-family="sans-serif" font-size="13" lengthAdjust="spacingAndGlyphs" textLength="161" x="336.8" y="191.1997">if defined(OUTPUT_NULL)</text><text fill="#000000" font-family="sans-serif" font-size="13" lengthAdjust="spacingAndGlyphs" textLength="210" x="328.8" y="206.3325">#include "import/output/null.null"</text><text fill="#000000" font-family="sans-serif" font-size="13" lengthAdjust="spacingAndGlyphs" textLength="107" x="328.8" y="221.4653">#define OUT null</text><text fill="#000000" font-family="sans-serif" font-size="13" lengthAdjust="spacingAndGlyphs" textLength="12" x="320.8" y="236.5981">3.</text><text fill="#000000" font-family="sans-serif" font-size="13" lengthAdjust="spacingAndGlyphs" textLength="26" x="336.8" y="236.5981">else</text><text fill="#000000" font-family="sans-serif" font-size="13" lengthAdjust="spacingAndGlyphs" textLength="227" x="328.8" y="251.731">#include "import/output/stdout.std"</text><text fill="#000000" font-family="sans-serif" font-size="13" lengthAdjust="spacingAndGlyphs" textLength="105" x="328.8" y="266.8638">#define OUT std</text><text fill="#000000" font-family="sans-serif" font-size="13" lengthAdjust="spacingAndGlyphs" textLength="12" x="320.8" y="281.9966">4.</text><text fill="#000000" font-family="sans-serif" font-size="13" lengthAdjust="spacingAndGlyphs" textLength="31" x="336.8" y="281.9966">endif</text><!--MD5=[84718776d214be480e4c259efcb737fc]
class Main--><rect fill="#FEFECE" filter="url(#fm8qnc4koximi)" height="73.6094" id="Main" style="stroke: #A80036; stroke-width: 1.5;" width="153" x="125.3" y="8"/><ellipse cx="182.55" cy="24" fill="#ADD1B2" rx="11" ry="11" style="stroke: #A80036; stroke-width: 1.0;"/><path d="M185.5188,29.6406 Q184.9406,29.9375 184.3,30.0781 Q183.6594,30.2344 182.9563,30.2344 Q180.4563,30.2344 179.1281,28.5938 Q177.8156,26.9375 177.8156,23.8125 Q177.8156,20.6875 179.1281,19.0313 Q180.4563,17.375 182.9563,17.375 Q183.6594,17.375 184.3,17.5313 Q184.9563,17.6875 185.5188,17.9844 L185.5188,20.7031 Q184.8938,20.125 184.3,19.8594 Q183.7063,19.5781 183.0813,19.5781 Q181.7375,19.5781 181.05,20.6563 Q180.3625,21.7188 180.3625,23.8125 Q180.3625,25.9063 181.05,26.9844 Q181.7375,28.0469 183.0813,28.0469 Q183.7063,28.0469 184.3,27.7813 Q184.8938,27.5 185.5188,26.9219 L185.5188,29.6406 Z "/><text fill="#000000" font-family="sans-serif" font-size="12" lengthAdjust="spacingAndGlyphs" textLength="30" x="203.05" y="28.1543">main</text><line style="stroke: #A80036; stroke-width: 1.5;" x1="126.3" x2="277.3" y1="40" y2="40"/><text fill="#000000" font-family="sans-serif" font-size="11" lengthAdjust="spacingAndGlyphs" textLength="141" x="131.3" y="54.2104">+greeting : out_Greeting</text><line style="stroke: #A80036; stroke-width: 1.0;" x1="126.3" x2="277.3" y1="60.8047" y2="60.8047"/><text fill="#000000" font-family="sans-serif" font-size="11" lengthAdjust="spacingAndGlyphs" textLength="71" x="131.3" y="75.0151">+main() : int</text><path d="M313.8,17.5 L313.8,41 L278.36,45 L313.8,49 L313.8,72.8984 A0,0 0 0 0 313.8,72.8984 L537.8,72.8984 A0,0 0 0 0 537.8,72.8984 L537.8,27.5 L527.8,17.5 L313.8,17.5 A0,0 0 0 0 313.8,17.5 " fill="#FBFB77" filter="url(#fm8qnc4koximi)" style="stroke: #A80036; stroke-width: 1.0;"/><path d="M527.8,17.5 L527.8,27.5 L537.8,27.5 L527.8,17.5 " fill="#FBFB77" style="stroke: #A80036; stroke-width: 1.0;"/><text fill="#000000" font-family="sans-serif" font-size="13" lengthAdjust="spacingAndGlyphs" textLength="12" x="319.8" y="34.5669">1.</text><text fill="#000000" font-family="sans-serif" font-size="13" lengthAdjust="spacingAndGlyphs" textLength="113" x="335.8" y="34.5669">include "output.h"</text><text fill="#000000" font-family="sans-serif" font-size="13" lengthAdjust="spacingAndGlyphs" textLength="148" x="319.8" y="49.6997">OUT-&gt;output(greeting)</text><text fill="#000000" font-family="sans-serif" font-size="13" lengthAdjust="spacingAndGlyphs" textLength="203" x="319.8" y="64.8325">(-DOUTPUT_NULL to select null)</text><!--MD5=[7be34b2c165836a34919d87ed60a2f03]
link Stdout to IOutput--><path d="M201.8,451.16 C201.8,468.2 201.8,489.58 201.8,509.45 " fill="none" id="Stdout-&gt;IOutput" style="stroke: #A80036; stroke-width: 1.0; stroke-dasharray: 7.0,7.0;"/><polygon fill="none" points="208.8,509.73,201.8,529.73,194.8,509.73,208.8,509.73" style="stroke: #A80036; stroke-width: 1.0;"/><text fill="#000000" font-family="sans-serif" font-size="13" lengthAdjust="spacingAndGlyphs" textLength="77" x="202.8" y="496.0669">conforms to</text><!--MD5=[5e1aa4fb8aede40402cbd0c784a4fb1f]
link Null to IOutput--><path d="M633.63,448.59 C627.61,450.1 621.63,451.57 615.8,453 C474.7,487.52 430.42,480.73 286.14,529.82 " fill="none" id="Null-&gt;IOutput" style="stroke: #A80036; stroke-width: 1.0; stroke-dasharray: 7.0,7.0;"/><polygon fill="none" points="288.26,536.49,267.07,536.43,283.67,523.26,288.26,536.49" style="stroke: #A80036; stroke-width: 1.0;"/><text fill="#000000" font-family="sans-serif" font-size="13" lengthAdjust="spacingAndGlyphs" textLength="77" x="465.8" y="496.0669">conforms to</text><!--MD5=[93092b6a359c99f0645483b8507ef6bf]
link Header to IOutput--><path d="M131.01,264.62 C63.14,307.57 -23.5,380.17 16.8,453 C41.28,497.24 90.46,526.86 131.96,545.1 " fill="none" id="Header-&gt;IOutput" style="stroke: #A80036; stroke-width: 1.0; stroke-dasharray: 7.0,7.0;"/><polygon fill="#A80036" points="136.72,547.16,130.0505,539.9131,132.1317,545.1732,126.8716,547.2543,136.72,547.16" style="stroke: #A80036; stroke-width: 1.0;"/><text fill="#000000" font-family="sans-serif" font-size="13" lengthAdjust="spacingAndGlyphs" textLength="49" x="17.8" y="414.5669">imports</text><text fill="#000000" font-family="sans-serif" font-size="13" lengthAdjust="spacingAndGlyphs" textLength="0" x="44.3" y="429.6997"/><text fill="#000000" font-family="sans-serif" font-size="13" lengthAdjust="spacingAndGlyphs" textLength="62" x="66.7634" y="541.7386">stem: out</text><!--MD5=[d2488cb648306a921c35dc33b3a6f33a]
link Header to Stdout--><path d="M201.8,264.61 C201.8,297.97 201.8,345.63 201.8,378.63 " fill="none" id="Header-&gt;Stdout" style="stroke: #A80036; stroke-width: 1.0; stroke-dasharray: 7.0,7.0;"/><polygon fill="#A80036" points="201.8,383.79,205.8,374.79,201.8,378.79,197.8,374.79,201.8,383.79" style="stroke: #A80036; stroke-width: 1.0;"/><text fill="#000000" font-family="sans-serif" font-size="13" lengthAdjust="spacingAndGlyphs" textLength="132" x="202.8" y="333.0669">imports conditionally</text><text fill="#000000" font-family="sans-serif" font-size="13" lengthAdjust="spacingAndGlyphs" textLength="0" x="270.8" y="348.1997"/><text fill="#000000" font-family="sans-serif" font-size="13" lengthAdjust="spacingAndGlyphs" textLength="61" x="134.9859" y="373.0385">stem: std</text><!--MD5=[cd26186edc0a0cce66203a0eba164e0c]
link Header to Null--><path d="M252.75,264.52 C266.53,273.81 281.79,283.04 296.8,290 C327.21,304.11 505.02,352.17 628.61,384.82 " fill="none" id="Header-&gt;Null" style="stroke: #A80036; stroke-width: 1.0; stroke-dasharray: 7.0,7.0;"/><polygon fill="#A80036" points="633.71,386.17,626.0377,379.9945,628.8774,384.887,623.9849,387.7267,633.71,386.17" style="stroke: #A80036; stroke-width: 1.0;"/><text fill="#000000" font-family="sans-serif" font-size="13" lengthAdjust="spacingAndGlyphs" textLength="132" x="502.8" y="333.0669">imports conditionally</text><text fill="#000000" font-family="sans-serif" font-size="13" lengthAdjust="spacingAndGlyphs" textLength="0" x="570.8" y="348.1997"/><text fill="#000000" font-family="sans-serif" font-size="13" lengthAdjust="spacingAndGlyphs" textLength="63" x="606.2628" y="372.4006">stem: null</text><!--MD5=[f56d8659d36f87bddf389aae53601eef]
link Main to Header--><path d="M201.8,82.35 C201.8,110.44 201.8,149.45 201.8,179.34 " fill="none" id="Main-&gt;Header" style="stroke: #A80036; stroke-width: 1.0; stroke-dasharray: 7.0,7.0;"/><polygon fill="#A80036" points="201.8,184.43,205.8,175.43,201.8,179.43,197.8,175.43,201.8,184.43" style="stroke: #A80036; stroke-width: 1.0;"/><text fill="#000000" font-family="sans-serif" font-size="13" lengthAdjust="spacingAndGlyphs" textLength="52" x="202.8" y="125.0669">includes</text><!--MD5=[b462b3dfc1d8c90f813dd3e5e8b2c2c6]
@startuml hello_world

skinparam classAttributeIconSize 0

interface "output / _" as IOutput <<parcel _>> {
  + {typedef} Greeting
  + {typedef} Output
}
note right of IOutput
  output.c
  #pragma parcel _ { Greeting Output }
  export/output/_
end note

class "output / stdout" as Stdout <<parcel stdout>> {
  + output(greeting : out_Greeting) : void
}
note right of Stdout
  output/stdout.c
  import/output/_.out
  #pragma parcel stdout { output }
  export/output/stdout
end note

class "output / null" as Null <<parcel null>> {
  + output(greeting : out_Greeting) : void
}
note right of Null
  output/null.c
  import/output/_.out
  #pragma parcel null { output }
  export/output/null
end note

class "output.h" as Header <<header>> {
  + {macro} OUTPUT_NULL
  + {macro} OUT
}
note right of Header
  #include "import/output/_.out"
  #if defined(OUTPUT_NULL)
    #include "import/output/null.null"
    #define OUT null
  #else
    #include "import/output/stdout.std"
    #define OUT std
  #endif
end note

class "main" as Main {
  + greeting : out_Greeting
  - -
  + main() : int
}
note right of Main
  #include "output.h"
  OUT->output(greeting)
  (-DOUTPUT_NULL to select null)
end note

Stdout ..|> IOutput : conforms to
Null   ..|> IOutput : conforms to

Header ..> IOutput : imports\n«stem: out»
Header ..> Stdout  : imports conditionally\n«stem: std»
Header ..> Null    : imports conditionally\n«stem: null»

Main ..> Header : includes

@enduml

PlantUML version 1.2020.02(Sun Mar 01 05:22:07 EST 2020)
(GPL source distribution)
Java Runtime: OpenJDK Runtime Environment
JVM: OpenJDK 64-Bit Server VM
Java Version: 21.0.10+7-Debian-1deb13u1
Operating System: Linux
Default Encoding: UTF-8
Language: en
Country: US
--></g></svg>