<?xml version="1.0" encoding="UTF-8" standalone="no"?><svg xmlns="http://www.w3.org/2000/svg" xmlns:xlink="http://www.w3.org/1999/xlink" contentScriptType="application/ecmascript" contentStyleType="text/css" height="629px" preserveAspectRatio="none" style="width:1101px;height:629px;" version="1.1" viewBox="0 0 1101 629" width="1101px" zoomAndPan="magnify"><defs><filter height="300%" id="fucgj0ny2j9f7" width="300%" x="-1" y="-1"><feGaussianBlur result="blurOut" stdDeviation="2.0"/><feColorMatrix in="blurOut" result="blurOut2" type="matrix" values="0 0 0 0 0 0 0 0 0 0 0 0 0 0 0 0 0 0 .4 0"/><feOffset dx="4.0" dy="4.0" in="blurOut2" result="blurOut3"/><feBlend in="SourceGraphic" in2="blurOut3" mode="normal"/></filter></defs><g><!--MD5=[cbfa7026d6ffbe682885bfadc514547d]
class IOutput--><rect fill="#FEFECE" filter="url(#fucgj0ny2j9f7)" height="79.5469" id="IOutput" style="stroke: #A80036; stroke-width: 1.5;" width="130" x="128.9" y="539"/><ellipse cx="161" cy="557.9688" fill="#B4A7E5" rx="11" ry="11" style="stroke: #A80036; stroke-width: 1.0;"/><path d="M156.9219,553.7344 L156.9219,551.5781 L164.3125,551.5781 L164.3125,553.7344 L161.8438,553.7344 L161.8438,561.8125 L164.3125,561.8125 L164.3125,563.9688 L156.9219,563.9688 L156.9219,561.8125 L159.3906,561.8125 L159.3906,553.7344 L156.9219,553.7344 Z "/><text fill="#000000" font-family="sans-serif" font-size="12" font-style="italic" lengthAdjust="spacingAndGlyphs" textLength="63" x="177.3" y="555.1387">«parcel _»</text><text fill="#000000" font-family="sans-serif" font-size="12" font-style="italic" lengthAdjust="spacingAndGlyphs" textLength="60" x="178.8" y="569.1074">output / _</text><line style="stroke: #A80036; stroke-width: 1.5;" x1="129.9" x2="257.9" y1="576.9375" y2="576.9375"/><text fill="#000000" font-family="sans-serif" font-size="11" lengthAdjust="spacingAndGlyphs" textLength="118" x="134.9" y="591.1479">+{typedef} Greeting</text><text fill="#000000" font-family="sans-serif" font-size="11" lengthAdjust="spacingAndGlyphs" textLength="107" x="134.9" y="603.9526">+{typedef} Output</text><line style="stroke: #A80036; stroke-width: 1.5;" x1="129.9" x2="257.9" y1="610.5469" y2="610.5469"/><path d="M293.9,551.5 L293.9,575 L259.35,579 L293.9,583 L293.9,606.8984 A0,0 0 0 0 293.9,606.8984 L565.9,606.8984 A0,0 0 0 0 565.9,606.8984 L565.9,561.5 L555.9,551.5 L293.9,551.5 A0,0 0 0 0 293.9,551.5 " fill="#FBFB77" filter="url(#fucgj0ny2j9f7)" style="stroke: #A80036; stroke-width: 1.0;"/><path d="M555.9,551.5 L555.9,561.5 L565.9,561.5 L555.9,551.5 " fill="#FBFB77" style="stroke: #A80036; stroke-width: 1.0;"/><text fill="#000000" font-family="sans-serif" font-size="13" lengthAdjust="spacingAndGlyphs" textLength="53" x="299.9" y="568.5669">output.c</text><text fill="#000000" font-family="sans-serif" font-size="13" lengthAdjust="spacingAndGlyphs" textLength="12" x="299.9" y="583.6997">1.</text><text fill="#000000" font-family="sans-serif" font-size="13" lengthAdjust="spacingAndGlyphs" textLength="235" x="315.9" y="583.6997">pragma parcel _ { Greeting Output }</text><text fill="#000000" font-family="sans-serif" font-size="13" lengthAdjust="spacingAndGlyphs" textLength="87" x="299.9" y="598.8325">export/output</text><!--MD5=[d71eaca3c97c973790d9a5c91db666bb]
class Stdout--><rect fill="#FEFECE" filter="url(#fucgj0ny2j9f7)" height="79.5469" id="Stdout" style="stroke: #A80036; stroke-width: 1.5;" width="217" x="85.4" y="382"/><ellipse cx="142.15" cy="400.9688" fill="#ADD1B2" rx="11" ry="11" style="stroke: #A80036; stroke-width: 1.0;"/><path d="M145.1188,406.6094 Q144.5406,406.9063 143.9,407.0469 Q143.2594,407.2031 142.5563,407.2031 Q140.0563,407.2031 138.7281,405.5625 Q137.4156,403.9063 137.4156,400.7813 Q137.4156,397.6563 138.7281,396 Q140.0563,394.3438 142.5563,394.3438 Q143.2594,394.3438 143.9,394.5 Q144.5563,394.6563 145.1188,394.9531 L145.1188,397.6719 Q144.4938,397.0938 143.9,396.8281 Q143.3063,396.5469 142.6813,396.5469 Q141.3375,396.5469 140.65,397.625 Q139.9625,398.6875 139.9625,400.7813 Q139.9625,402.875 140.65,403.9531 Q141.3375,405.0156 142.6813,405.0156 Q143.3063,405.0156 143.9,404.75 Q144.4938,404.4688 145.1188,403.8906 L145.1188,406.6094 Z "/><text fill="#000000" font-family="sans-serif" font-size="12" font-style="italic" lengthAdjust="spacingAndGlyphs" textLength="98" x="161.15" y="398.1387">«parcel stdout»</text><text fill="#000000" font-family="sans-serif" font-size="12" lengthAdjust="spacingAndGlyphs" textLength="95" x="162.65" y="412.1074">output / stdout</text><line style="stroke: #A80036; stroke-width: 1.5;" x1="86.4" x2="301.4" y1="419.9375" y2="419.9375"/><text fill="#000000" font-family="sans-serif" font-size="11" lengthAdjust="spacingAndGlyphs" textLength="119" x="91.4" y="434.1479">+output : out_Output</text><line style="stroke: #A80036; stroke-width: 1.0;" x1="86.4" x2="301.4" y1="440.7422" y2="440.7422"/><text fill="#000000" font-family="sans-serif" font-size="11" lengthAdjust="spacingAndGlyphs" textLength="205" x="91.4" y="454.9526">-print(greeting : out_Greeting) : void</text><path d="M337.4,386.5 L337.4,418 L302.48,422 L337.4,426 L337.4,457.0313 A0,0 0 0 0 337.4,457.0313 L582.4,457.0313 A0,0 0 0 0 582.4,457.0313 L582.4,396.5 L572.4,386.5 L337.4,386.5 A0,0 0 0 0 337.4,386.5 " fill="#FBFB77" filter="url(#fucgj0ny2j9f7)" style="stroke: #A80036; stroke-width: 1.0;"/><path d="M572.4,386.5 L572.4,396.5 L582.4,396.5 L572.4,386.5 " fill="#FBFB77" style="stroke: #A80036; stroke-width: 1.0;"/><text fill="#000000" font-family="sans-serif" font-size="13" lengthAdjust="spacingAndGlyphs" textLength="98" x="343.4" y="403.5669">output/stdout.c</text><text fill="#000000" font-family="sans-serif" font-size="13" lengthAdjust="spacingAndGlyphs" textLength="124" x="343.4" y="418.6997">import/output/_.out</text><text fill="#000000" font-family="sans-serif" font-size="13" lengthAdjust="spacingAndGlyphs" textLength="12" x="343.4" y="433.8325">1.</text><text fill="#000000" font-family="sans-serif" font-size="13" lengthAdjust="spacingAndGlyphs" textLength="208" x="359.4" y="433.8325">pragma parcel stdout { output }</text><text fill="#000000" font-family="sans-serif" font-size="13" lengthAdjust="spacingAndGlyphs" textLength="132" x="343.4" y="448.9653">export/output/stdout</text><!--MD5=[c330aa171b4ae5600de6569adaab31c4]
class Null--><rect fill="#FEFECE" filter="url(#fucgj0ny2j9f7)" height="79.5469" id="Null" style="stroke: #A80036; stroke-width: 1.5;" width="211" x="617.4" y="382"/><ellipse cx="680.65" cy="400.9688" fill="#ADD1B2" rx="11" ry="11" style="stroke: #A80036; stroke-width: 1.0;"/><path d="M683.6188,406.6094 Q683.0406,406.9063 682.4,407.0469 Q681.7594,407.2031 681.0563,407.2031 Q678.5563,407.2031 677.2281,405.5625 Q675.9156,403.9063 675.9156,400.7813 Q675.9156,397.6563 677.2281,396 Q678.5563,394.3438 681.0563,394.3438 Q681.7594,394.3438 682.4,394.5 Q683.0563,394.6563 683.6188,394.9531 L683.6188,397.6719 Q682.9938,397.0938 682.4,396.8281 Q681.8063,396.5469 681.1813,396.5469 Q679.8375,396.5469 679.15,397.625 Q678.4625,398.6875 678.4625,400.7813 Q678.4625,402.875 679.15,403.9531 Q679.8375,405.0156 681.1813,405.0156 Q681.8063,405.0156 682.4,404.75 Q682.9938,404.4688 683.6188,403.8906 L683.6188,406.6094 Z "/><text fill="#000000" font-family="sans-serif" font-size="12" font-style="italic" lengthAdjust="spacingAndGlyphs" textLength="79" x="699.65" y="398.1387">«parcel null»</text><text fill="#000000" font-family="sans-serif" font-size="12" lengthAdjust="spacingAndGlyphs" textLength="76" x="701.15" y="412.1074">output / null</text><line style="stroke: #A80036; stroke-width: 1.5;" x1="618.4" x2="827.4" y1="419.9375" y2="419.9375"/><text fill="#000000" font-family="sans-serif" font-size="11" lengthAdjust="spacingAndGlyphs" textLength="119" x="623.4" y="434.1479">+output : out_Output</text><line style="stroke: #A80036; stroke-width: 1.0;" x1="618.4" x2="827.4" y1="440.7422" y2="440.7422"/><text fill="#000000" font-family="sans-serif" font-size="11" lengthAdjust="spacingAndGlyphs" textLength="199" x="623.4" y="454.9526">-null(greeting : out_Greeting) : void</text><path d="M863.9,386.5 L863.9,418 L828.57,422 L863.9,426 L863.9,457.0313 A0,0 0 0 0 863.9,457.0313 L1089.9,457.0313 A0,0 0 0 0 1089.9,457.0313 L1089.9,396.5 L1079.9,386.5 L863.9,386.5 A0,0 0 0 0 863.9,386.5 " fill="#FBFB77" filter="url(#fucgj0ny2j9f7)" style="stroke: #A80036; stroke-width: 1.0;"/><path d="M1079.9,386.5 L1079.9,396.5 L1089.9,396.5 L1079.9,386.5 " fill="#FBFB77" style="stroke: #A80036; stroke-width: 1.0;"/><text fill="#000000" font-family="sans-serif" font-size="13" lengthAdjust="spacingAndGlyphs" textLength="79" x="869.9" y="403.5669">output/null.c</text><text fill="#000000" font-family="sans-serif" font-size="13" lengthAdjust="spacingAndGlyphs" textLength="124" x="869.9" y="418.6997">import/output/_.out</text><text fill="#000000" font-family="sans-serif" font-size="13" lengthAdjust="spacingAndGlyphs" textLength="12" x="869.9" y="433.8325">1.</text><text fill="#000000" font-family="sans-serif" font-size="13" lengthAdjust="spacingAndGlyphs" textLength="189" x="885.9" y="433.8325">pragma parcel null { output }</text><text fill="#000000" font-family="sans-serif" font-size="13" lengthAdjust="spacingAndGlyphs" textLength="113" x="869.9" y="448.9653">export/output/null</text><!--MD5=[d10018d7374cb536a2ec2f77e731452b]
class Header--><rect fill="#FEFECE" filter="url(#fucgj0ny2j9f7)" height="79.5469" id="Header" style="stroke: #A80036; stroke-width: 1.5;" width="133" x="127.4" y="184.5"/><ellipse cx="163.1" cy="203.4688" fill="#ADD1B2" rx="11" ry="11" style="stroke: #A80036; stroke-width: 1.0;"/><path d="M166.0688,209.1094 Q165.4906,209.4063 164.85,209.5469 Q164.2094,209.7031 163.5063,209.7031 Q161.0063,209.7031 159.6781,208.0625 Q158.3656,206.4063 158.3656,203.2813 Q158.3656,200.1563 159.6781,198.5 Q161.0063,196.8438 163.5063,196.8438 Q164.2094,196.8438 164.85,197 Q165.5063,197.1563 166.0688,197.4531 L166.0688,200.1719 Q165.4438,199.5938 164.85,199.3281 Q164.2563,199.0469 163.6313,199.0469 Q162.2875,199.0469 161.6,200.125 Q160.9125,201.1875 160.9125,203.2813 Q160.9125,205.375 161.6,206.4531 Q162.2875,207.5156 163.6313,207.5156 Q164.2563,207.5156 164.85,207.25 Q165.4438,206.9688 166.0688,206.3906 L166.0688,209.1094 Z "/><text fill="#000000" font-family="sans-serif" font-size="12" font-style="italic" lengthAdjust="spacingAndGlyphs" textLength="59" x="179.7" y="200.6387">«header»</text><text fill="#000000" font-family="sans-serif" font-size="12" lengthAdjust="spacingAndGlyphs" textLength="54" x="182.2" y="214.6074">output.h</text><line style="stroke: #A80036; stroke-width: 1.5;" x1="128.4" x2="259.4" y1="222.4375" y2="222.4375"/><text fill="#000000" font-family="sans-serif" font-size="11" lengthAdjust="spacingAndGlyphs" textLength="121" x="133.4" y="236.6479">+{macro} OUT_NULL</text><text fill="#000000" font-family="sans-serif" font-size="11" lengthAdjust="spacingAndGlyphs" textLength="87" x="133.4" y="249.4526">+{macro} OUT</text><line style="stroke: #A80036; stroke-width: 1.5;" x1="128.4" x2="259.4" y1="256.0469" y2="256.0469"/><path d="M295.9,159 L295.9,220.5 L260.83,224.5 L295.9,228.5 L295.9,290.0625 A0,0 0 0 0 295.9,290.0625 L551.9,290.0625 A0,0 0 0 0 551.9,290.0625 L551.9,169 L541.9,159 L295.9,159 A0,0 0 0 0 295.9,159 " fill="#FBFB77" filter="url(#fucgj0ny2j9f7)" style="stroke: #A80036; stroke-width: 1.0;"/><path d="M541.9,159 L541.9,169 L551.9,169 L541.9,159 " fill="#FBFB77" style="stroke: #A80036; stroke-width: 1.0;"/><text fill="#000000" font-family="sans-serif" font-size="13" lengthAdjust="spacingAndGlyphs" textLength="12" x="301.9" y="176.0669">1.</text><text fill="#000000" font-family="sans-serif" font-size="13" lengthAdjust="spacingAndGlyphs" textLength="183" x="317.9" y="176.0669">include "import/output/_.out"</text><text fill="#000000" font-family="sans-serif" font-size="13" lengthAdjust="spacingAndGlyphs" textLength="12" x="301.9" y="191.1997">2.</text><text fill="#000000" font-family="sans-serif" font-size="13" lengthAdjust="spacingAndGlyphs" textLength="136" x="317.9" y="191.1997">if defined(OUT_NULL)</text><text fill="#000000" font-family="sans-serif" font-size="13" lengthAdjust="spacingAndGlyphs" textLength="210" x="309.9" y="206.3325">#include "import/output/null.null"</text><text fill="#000000" font-family="sans-serif" font-size="13" lengthAdjust="spacingAndGlyphs" textLength="107" x="309.9" y="221.4653">#define OUT null</text><text fill="#000000" font-family="sans-serif" font-size="13" lengthAdjust="spacingAndGlyphs" textLength="12" x="301.9" y="236.5981">3.</text><text fill="#000000" font-family="sans-serif" font-size="13" lengthAdjust="spacingAndGlyphs" textLength="26" x="317.9" y="236.5981">else</text><text fill="#000000" font-family="sans-serif" font-size="13" lengthAdjust="spacingAndGlyphs" textLength="227" x="309.9" y="251.731">#include "import/output/stdout.std"</text><text fill="#000000" font-family="sans-serif" font-size="13" lengthAdjust="spacingAndGlyphs" textLength="105" x="309.9" y="266.8638">#define OUT std</text><text fill="#000000" font-family="sans-serif" font-size="13" lengthAdjust="spacingAndGlyphs" textLength="12" x="301.9" y="281.9966">4.</text><text fill="#000000" font-family="sans-serif" font-size="13" lengthAdjust="spacingAndGlyphs" textLength="31" x="317.9" y="281.9966">endif</text><!--MD5=[84718776d214be480e4c259efcb737fc]
class Main--><rect fill="#FEFECE" filter="url(#fucgj0ny2j9f7)" height="73.6094" id="Main" style="stroke: #A80036; stroke-width: 1.5;" width="153" x="117.4" y="8"/><ellipse cx="174.65" cy="24" fill="#ADD1B2" rx="11" ry="11" style="stroke: #A80036; stroke-width: 1.0;"/><path d="M177.6188,29.6406 Q177.0406,29.9375 176.4,30.0781 Q175.7594,30.2344 175.0563,30.2344 Q172.5563,30.2344 171.2281,28.5938 Q169.9156,26.9375 169.9156,23.8125 Q169.9156,20.6875 171.2281,19.0313 Q172.5563,17.375 175.0563,17.375 Q175.7594,17.375 176.4,17.5313 Q177.0563,17.6875 177.6188,17.9844 L177.6188,20.7031 Q176.9938,20.125 176.4,19.8594 Q175.8063,19.5781 175.1813,19.5781 Q173.8375,19.5781 173.15,20.6563 Q172.4625,21.7188 172.4625,23.8125 Q172.4625,25.9063 173.15,26.9844 Q173.8375,28.0469 175.1813,28.0469 Q175.8063,28.0469 176.4,27.7813 Q176.9938,27.5 177.6188,26.9219 L177.6188,29.6406 Z "/><text fill="#000000" font-family="sans-serif" font-size="12" lengthAdjust="spacingAndGlyphs" textLength="30" x="195.15" y="28.1543">main</text><line style="stroke: #A80036; stroke-width: 1.5;" x1="118.4" x2="269.4" y1="40" y2="40"/><text fill="#000000" font-family="sans-serif" font-size="11" lengthAdjust="spacingAndGlyphs" textLength="141" x="123.4" y="54.2104">+greeting : out_Greeting</text><line style="stroke: #A80036; stroke-width: 1.0;" x1="118.4" x2="269.4" y1="60.8047" y2="60.8047"/><text fill="#000000" font-family="sans-serif" font-size="11" lengthAdjust="spacingAndGlyphs" textLength="71" x="123.4" y="75.0151">+main() : int</text><path d="M305.4,17.5 L305.4,41 L270.55,45 L305.4,49 L305.4,72.8984 A0,0 0 0 0 305.4,72.8984 L504.4,72.8984 A0,0 0 0 0 504.4,72.8984 L504.4,27.5 L494.4,17.5 L305.4,17.5 A0,0 0 0 0 305.4,17.5 " fill="#FBFB77" filter="url(#fucgj0ny2j9f7)" style="stroke: #A80036; stroke-width: 1.0;"/><path d="M494.4,17.5 L494.4,27.5 L504.4,27.5 L494.4,17.5 " fill="#FBFB77" style="stroke: #A80036; stroke-width: 1.0;"/><text fill="#000000" font-family="sans-serif" font-size="13" lengthAdjust="spacingAndGlyphs" textLength="12" x="311.4" y="34.5669">1.</text><text fill="#000000" font-family="sans-serif" font-size="13" lengthAdjust="spacingAndGlyphs" textLength="113" x="327.4" y="34.5669">include "output.h"</text><text fill="#000000" font-family="sans-serif" font-size="13" lengthAdjust="spacingAndGlyphs" textLength="148" x="311.4" y="49.6997">OUT-&gt;output(greeting)</text><text fill="#000000" font-family="sans-serif" font-size="13" lengthAdjust="spacingAndGlyphs" textLength="178" x="311.4" y="64.8325">(-DOUT_NULL to select null)</text><!--MD5=[7be34b2c165836a34919d87ed60a2f03]
link Stdout to IOutput--><path d="M193.9,462.11 C193.9,479.28 193.9,499.8 193.9,518.78 " fill="none" id="Stdout-&gt;IOutput" style="stroke: #A80036; stroke-width: 1.0; stroke-dasharray: 7.0,7.0;"/><polygon fill="none" points="200.9,518.9,193.9,538.9,186.9,518.9,200.9,518.9" style="stroke: #A80036; stroke-width: 1.0;"/><text fill="#000000" font-family="sans-serif" font-size="13" lengthAdjust="spacingAndGlyphs" textLength="77" x="194.9" y="505.0669">conforms to</text><!--MD5=[5e1aa4fb8aede40402cbd0c784a4fb1f]
link Null to IOutput--><path d="M617.37,457.01 C611.47,458.74 605.62,460.42 599.9,462 C463.25,499.85 419.19,490.72 278.28,538.8 " fill="none" id="Null-&gt;IOutput" style="stroke: #A80036; stroke-width: 1.0; stroke-dasharray: 7.0,7.0;"/><polygon fill="none" points="280.37,545.49,259.18,545.46,275.76,532.27,280.37,545.49" style="stroke: #A80036; stroke-width: 1.0;"/><text fill="#000000" font-family="sans-serif" font-size="13" lengthAdjust="spacingAndGlyphs" textLength="77" x="464.9" y="505.0669">conforms to</text><!--MD5=[93092b6a359c99f0645483b8507ef6bf]
link Header to IOutput--><path d="M128.94,264.66 C63.13,309.66 -23.63,386.99 16.9,462 C39.64,504.09 85.03,533.37 124.16,551.99 " fill="none" id="Header-&gt;IOutput" style="stroke: #A80036; stroke-width: 1.0; stroke-dasharray: 7.0,7.0;"/><polygon fill="#A80036" points="128.9,554.2,122.4372,546.7682,124.3694,552.0848,119.0528,554.0171,128.9,554.2" style="stroke: #A80036; stroke-width: 1.0;"/><text fill="#000000" font-family="sans-serif" font-size="13" lengthAdjust="spacingAndGlyphs" textLength="49" x="17.9" y="419.0669">imports</text><text fill="#000000" font-family="sans-serif" font-size="13" lengthAdjust="spacingAndGlyphs" textLength="0" x="44.4" y="434.1997"/><text fill="#000000" font-family="sans-serif" font-size="13" lengthAdjust="spacingAndGlyphs" textLength="62" x="58.95" y="548.6163">stem: out</text><!--MD5=[d2488cb648306a921c35dc33b3a6f33a]
link Header to Stdout--><path d="M193.9,264.59 C193.9,296.96 193.9,342.94 193.9,376.67 " fill="none" id="Header-&gt;Stdout" style="stroke: #A80036; stroke-width: 1.0; stroke-dasharray: 7.0,7.0;"/><polygon fill="#A80036" points="193.9,381.98,197.9,372.98,193.9,376.98,189.9,372.98,193.9,381.98" style="stroke: #A80036; stroke-width: 1.0;"/><text fill="#000000" font-family="sans-serif" font-size="13" lengthAdjust="spacingAndGlyphs" textLength="132" x="194.9" y="333.0669">imports conditionally</text><text fill="#000000" font-family="sans-serif" font-size="13" lengthAdjust="spacingAndGlyphs" textLength="0" x="262.9" y="348.1997"/><text fill="#000000" font-family="sans-serif" font-size="13" lengthAdjust="spacingAndGlyphs" textLength="61" x="127.6578" y="370.9297">stem: std</text><!--MD5=[cd26186edc0a0cce66203a0eba164e0c]
link Header to Null--><path d="M238.46,264.65 C250.65,273.94 264.27,283.14 277.9,290 C410.83,356.95 457.39,339.06 599.9,382 C603.98,383.23 608.14,384.49 612.34,385.78 " fill="none" id="Header-&gt;Null" style="stroke: #A80036; stroke-width: 1.0; stroke-dasharray: 7.0,7.0;"/><polygon fill="#A80036" points="617.28,387.3,609.8584,380.8254,612.502,385.8266,607.5009,388.4702,617.28,387.3" style="stroke: #A80036; stroke-width: 1.0;"/><text fill="#000000" font-family="sans-serif" font-size="13" lengthAdjust="spacingAndGlyphs" textLength="132" x="469.9" y="333.0669">imports conditionally</text><text fill="#000000" font-family="sans-serif" font-size="13" lengthAdjust="spacingAndGlyphs" textLength="0" x="537.9" y="348.1997"/><text fill="#000000" font-family="sans-serif" font-size="13" lengthAdjust="spacingAndGlyphs" textLength="63" x="572.7413" y="370.972">stem: null</text><!--MD5=[f56d8659d36f87bddf389aae53601eef]
link Main to Header--><path d="M193.9,82.35 C193.9,110.44 193.9,149.45 193.9,179.34 " fill="none" id="Main-&gt;Header" style="stroke: #A80036; stroke-width: 1.0; stroke-dasharray: 7.0,7.0;"/><polygon fill="#A80036" points="193.9,184.43,197.9,175.43,193.9,179.43,189.9,175.43,193.9,184.43" style="stroke: #A80036; stroke-width: 1.0;"/><text fill="#000000" font-family="sans-serif" font-size="13" lengthAdjust="spacingAndGlyphs" textLength="52" x="194.9" y="125.0669">includes</text><!--MD5=[76c46822813c35145d8af1b5734b889f]
@startuml hello_world

skinparam classAttributeIconSize 0

interface "output / _" as IOutput <<parcel _>> {
  + {typedef} Greeting
  + {typedef} Output
}
note right of IOutput
  output.c
  #pragma parcel _ { Greeting Output }
  export/output
end note

class "output / stdout" as Stdout <<parcel stdout>> {
  + output : out_Output
  - -
  - print(greeting : out_Greeting) : void
}
note right of Stdout
  output/stdout.c
  import/output/_.out
  #pragma parcel stdout { output }
  export/output/stdout
end note

class "output / null" as Null <<parcel null>> {
  + output : out_Output
  - -
  - null(greeting : out_Greeting) : void
}
note right of Null
  output/null.c
  import/output/_.out
  #pragma parcel null { output }
  export/output/null
end note

class "output.h" as Header <<header>> {
  + {macro} OUT_NULL
  + {macro} OUT
}
note right of Header
  #include "import/output/_.out"
  #if defined(OUT_NULL)
    #include "import/output/null.null"
    #define OUT null
  #else
    #include "import/output/stdout.std"
    #define OUT std
  #endif
end note

class "main" as Main {
  + greeting : out_Greeting
  - -
  + main() : int
}
note right of Main
  #include "output.h"
  OUT->output(greeting)
  (-DOUT_NULL to select null)
end note

Stdout ..|> IOutput : conforms to
Null   ..|> IOutput : conforms to

Header ..> IOutput : imports\n«stem: out»
Header ..> Stdout  : imports conditionally\n«stem: std»
Header ..> Null    : imports conditionally\n«stem: null»

Main ..> Header : includes

@enduml

PlantUML version 1.2020.02(Sun Mar 01 05:22:07 EST 2020)
(GPL source distribution)
Java Runtime: OpenJDK Runtime Environment
JVM: OpenJDK 64-Bit Server VM
Java Version: 21.0.10+7-Debian-1deb13u1
Operating System: Linux
Default Encoding: UTF-8
Language: en
Country: US
--></g></svg>