<?xml version="1.0" encoding="UTF-8" standalone="no"?><svg xmlns="http://www.w3.org/2000/svg" xmlns:xlink="http://www.w3.org/1999/xlink" contentScriptType="application/ecmascript" contentStyleType="text/css" height="436px" preserveAspectRatio="none" style="width:1103px;height:436px;" version="1.1" viewBox="0 0 1103 436" width="1103px" zoomAndPan="magnify"><defs><filter height="300%" id="fqtaviry56p4a" width="300%" x="-1" y="-1"><feGaussianBlur result="blurOut" stdDeviation="2.0"/><feColorMatrix in="blurOut" result="blurOut2" type="matrix" values="0 0 0 0 0 0 0 0 0 0 0 0 0 0 0 0 0 0 .4 0"/><feOffset dx="4.0" dy="4.0" in="blurOut2" result="blurOut3"/><feBlend in="SourceGraphic" in2="blurOut3" mode="normal"/></filter></defs><g><!--MD5=[cbfa7026d6ffbe682885bfadc514547d]
class IOutput--><rect fill="#FEFECE" filter="url(#fqtaviry56p4a)" height="79.5469" id="IOutput" style="stroke: #A80036; stroke-width: 1.5;" width="130" x="130.08" y="346"/><ellipse cx="162.18" cy="364.9688" fill="#B4A7E5" rx="11" ry="11" style="stroke: #A80036; stroke-width: 1.0;"/><path d="M158.1019,360.7344 L158.1019,358.5781 L165.4925,358.5781 L165.4925,360.7344 L163.0237,360.7344 L163.0237,368.8125 L165.4925,368.8125 L165.4925,370.9688 L158.1019,370.9688 L158.1019,368.8125 L160.5706,368.8125 L160.5706,360.7344 L158.1019,360.7344 Z "/><text fill="#000000" font-family="sans-serif" font-size="12" font-style="italic" lengthAdjust="spacingAndGlyphs" textLength="63" x="178.48" y="362.1387">«parcel _»</text><text fill="#000000" font-family="sans-serif" font-size="12" font-style="italic" lengthAdjust="spacingAndGlyphs" textLength="60" x="179.98" y="376.1074">output / _</text><line style="stroke: #A80036; stroke-width: 1.5;" x1="131.08" x2="259.08" y1="383.9375" y2="383.9375"/><text fill="#000000" font-family="sans-serif" font-size="11" lengthAdjust="spacingAndGlyphs" textLength="118" x="136.08" y="398.1479">+{typedef} Greeting</text><text fill="#000000" font-family="sans-serif" font-size="11" lengthAdjust="spacingAndGlyphs" textLength="107" x="136.08" y="410.9526">+{typedef} Output</text><line style="stroke: #A80036; stroke-width: 1.5;" x1="131.08" x2="259.08" y1="417.5469" y2="417.5469"/><path d="M295.08,358.5 L295.08,382 L260.53,386 L295.08,390 L295.08,413.8984 A0,0 0 0 0 295.08,413.8984 L567.08,413.8984 A0,0 0 0 0 567.08,413.8984 L567.08,368.5 L557.08,358.5 L295.08,358.5 A0,0 0 0 0 295.08,358.5 " fill="#FBFB77" filter="url(#fqtaviry56p4a)" style="stroke: #A80036; stroke-width: 1.0;"/><path d="M557.08,358.5 L557.08,368.5 L567.08,368.5 L557.08,358.5 " fill="#FBFB77" style="stroke: #A80036; stroke-width: 1.0;"/><text fill="#000000" font-family="sans-serif" font-size="13" lengthAdjust="spacingAndGlyphs" textLength="53" x="301.08" y="375.5669">output.c</text><text fill="#000000" font-family="sans-serif" font-size="13" lengthAdjust="spacingAndGlyphs" textLength="12" x="301.08" y="390.6997">1.</text><text fill="#000000" font-family="sans-serif" font-size="13" lengthAdjust="spacingAndGlyphs" textLength="235" x="317.08" y="390.6997">pragma parcel _ { Greeting Output }</text><text fill="#000000" font-family="sans-serif" font-size="13" lengthAdjust="spacingAndGlyphs" textLength="87" x="301.08" y="405.8325">export/output</text><!--MD5=[d71eaca3c97c973790d9a5c91db666bb]
class Stdout--><rect fill="#FEFECE" filter="url(#fqtaviry56p4a)" height="79.5469" id="Stdout" style="stroke: #A80036; stroke-width: 1.5;" width="217" x="86.58" y="174"/><ellipse cx="143.33" cy="192.9688" fill="#ADD1B2" rx="11" ry="11" style="stroke: #A80036; stroke-width: 1.0;"/><path d="M146.2987,198.6094 Q145.7206,198.9063 145.08,199.0469 Q144.4394,199.2031 143.7362,199.2031 Q141.2362,199.2031 139.9081,197.5625 Q138.5956,195.9063 138.5956,192.7813 Q138.5956,189.6563 139.9081,188 Q141.2362,186.3438 143.7362,186.3438 Q144.4394,186.3438 145.08,186.5 Q145.7362,186.6563 146.2987,186.9531 L146.2987,189.6719 Q145.6737,189.0938 145.08,188.8281 Q144.4862,188.5469 143.8612,188.5469 Q142.5175,188.5469 141.83,189.625 Q141.1425,190.6875 141.1425,192.7813 Q141.1425,194.875 141.83,195.9531 Q142.5175,197.0156 143.8612,197.0156 Q144.4862,197.0156 145.08,196.75 Q145.6737,196.4688 146.2987,195.8906 L146.2987,198.6094 Z "/><text fill="#000000" font-family="sans-serif" font-size="12" font-style="italic" lengthAdjust="spacingAndGlyphs" textLength="98" x="162.33" y="190.1387">«parcel stdout»</text><text fill="#000000" font-family="sans-serif" font-size="12" lengthAdjust="spacingAndGlyphs" textLength="95" x="163.83" y="204.1074">output / stdout</text><line style="stroke: #A80036; stroke-width: 1.5;" x1="87.58" x2="302.58" y1="211.9375" y2="211.9375"/><text fill="#000000" font-family="sans-serif" font-size="11" lengthAdjust="spacingAndGlyphs" textLength="119" x="92.58" y="226.1479">+output : out_Output</text><line style="stroke: #A80036; stroke-width: 1.0;" x1="87.58" x2="302.58" y1="232.7422" y2="232.7422"/><text fill="#000000" font-family="sans-serif" font-size="11" lengthAdjust="spacingAndGlyphs" textLength="205" x="92.58" y="246.9526">-print(greeting : out_Greeting) : void</text><path d="M338.58,178.5 L338.58,210 L303.66,214 L338.58,218 L338.58,249.0313 A0,0 0 0 0 338.58,249.0313 L583.58,249.0313 A0,0 0 0 0 583.58,249.0313 L583.58,188.5 L573.58,178.5 L338.58,178.5 A0,0 0 0 0 338.58,178.5 " fill="#FBFB77" filter="url(#fqtaviry56p4a)" style="stroke: #A80036; stroke-width: 1.0;"/><path d="M573.58,178.5 L573.58,188.5 L583.58,188.5 L573.58,178.5 " fill="#FBFB77" style="stroke: #A80036; stroke-width: 1.0;"/><text fill="#000000" font-family="sans-serif" font-size="13" lengthAdjust="spacingAndGlyphs" textLength="98" x="344.58" y="195.5669">output/stdout.c</text><text fill="#000000" font-family="sans-serif" font-size="13" lengthAdjust="spacingAndGlyphs" textLength="124" x="344.58" y="210.6997">import/output/_.out</text><text fill="#000000" font-family="sans-serif" font-size="13" lengthAdjust="spacingAndGlyphs" textLength="12" x="344.58" y="225.8325">1.</text><text fill="#000000" font-family="sans-serif" font-size="13" lengthAdjust="spacingAndGlyphs" textLength="208" x="360.58" y="225.8325">pragma parcel stdout { output }</text><text fill="#000000" font-family="sans-serif" font-size="13" lengthAdjust="spacingAndGlyphs" textLength="132" x="344.58" y="240.9653">export/output/stdout</text><!--MD5=[c330aa171b4ae5600de6569adaab31c4]
class Null--><rect fill="#FEFECE" filter="url(#fqtaviry56p4a)" height="79.5469" id="Null" style="stroke: #A80036; stroke-width: 1.5;" width="211" x="618.58" y="174"/><ellipse cx="681.83" cy="192.9688" fill="#ADD1B2" rx="11" ry="11" style="stroke: #A80036; stroke-width: 1.0;"/><path d="M684.7988,198.6094 Q684.2206,198.9063 683.58,199.0469 Q682.9394,199.2031 682.2363,199.2031 Q679.7363,199.2031 678.4081,197.5625 Q677.0956,195.9063 677.0956,192.7813 Q677.0956,189.6563 678.4081,188 Q679.7363,186.3438 682.2363,186.3438 Q682.9394,186.3438 683.58,186.5 Q684.2363,186.6563 684.7988,186.9531 L684.7988,189.6719 Q684.1738,189.0938 683.58,188.8281 Q682.9863,188.5469 682.3613,188.5469 Q681.0175,188.5469 680.33,189.625 Q679.6425,190.6875 679.6425,192.7813 Q679.6425,194.875 680.33,195.9531 Q681.0175,197.0156 682.3613,197.0156 Q682.9863,197.0156 683.58,196.75 Q684.1738,196.4688 684.7988,195.8906 L684.7988,198.6094 Z "/><text fill="#000000" font-family="sans-serif" font-size="12" font-style="italic" lengthAdjust="spacingAndGlyphs" textLength="79" x="700.83" y="190.1387">«parcel null»</text><text fill="#000000" font-family="sans-serif" font-size="12" lengthAdjust="spacingAndGlyphs" textLength="76" x="702.33" y="204.1074">output / null</text><line style="stroke: #A80036; stroke-width: 1.5;" x1="619.58" x2="828.58" y1="211.9375" y2="211.9375"/><text fill="#000000" font-family="sans-serif" font-size="11" lengthAdjust="spacingAndGlyphs" textLength="119" x="624.58" y="226.1479">+output : out_Output</text><line style="stroke: #A80036; stroke-width: 1.0;" x1="619.58" x2="828.58" y1="232.7422" y2="232.7422"/><text fill="#000000" font-family="sans-serif" font-size="11" lengthAdjust="spacingAndGlyphs" textLength="199" x="624.58" y="246.9526">-null(greeting : out_Greeting) : void</text><path d="M865.08,178.5 L865.08,210 L829.75,214 L865.08,218 L865.08,249.0313 A0,0 0 0 0 865.08,249.0313 L1091.08,249.0313 A0,0 0 0 0 1091.08,249.0313 L1091.08,188.5 L1081.08,178.5 L865.08,178.5 A0,0 0 0 0 865.08,178.5 " fill="#FBFB77" filter="url(#fqtaviry56p4a)" style="stroke: #A80036; stroke-width: 1.0;"/><path d="M1081.08,178.5 L1081.08,188.5 L1091.08,188.5 L1081.08,178.5 " fill="#FBFB77" style="stroke: #A80036; stroke-width: 1.0;"/><text fill="#000000" font-family="sans-serif" font-size="13" lengthAdjust="spacingAndGlyphs" textLength="79" x="871.08" y="195.5669">output/null.c</text><text fill="#000000" font-family="sans-serif" font-size="13" lengthAdjust="spacingAndGlyphs" textLength="124" x="871.08" y="210.6997">import/output/_.out</text><text fill="#000000" font-family="sans-serif" font-size="13" lengthAdjust="spacingAndGlyphs" textLength="12" x="871.08" y="225.8325">1.</text><text fill="#000000" font-family="sans-serif" font-size="13" lengthAdjust="spacingAndGlyphs" textLength="189" x="887.08" y="225.8325">pragma parcel null { output }</text><text fill="#000000" font-family="sans-serif" font-size="13" lengthAdjust="spacingAndGlyphs" textLength="113" x="871.08" y="240.9653">export/output/null</text><!--MD5=[84718776d214be480e4c259efcb737fc]
class Main--><rect fill="#FEFECE" filter="url(#fqtaviry56p4a)" height="73.6094" id="Main" style="stroke: #A80036; stroke-width: 1.5;" width="153" x="118.58" y="8"/><ellipse cx="175.83" cy="24" fill="#ADD1B2" rx="11" ry="11" style="stroke: #A80036; stroke-width: 1.0;"/><path d="M178.7987,29.6406 Q178.2206,29.9375 177.58,30.0781 Q176.9394,30.2344 176.2362,30.2344 Q173.7362,30.2344 172.4081,28.5938 Q171.0956,26.9375 171.0956,23.8125 Q171.0956,20.6875 172.4081,19.0313 Q173.7362,17.375 176.2362,17.375 Q176.9394,17.375 177.58,17.5313 Q178.2362,17.6875 178.7987,17.9844 L178.7987,20.7031 Q178.1737,20.125 177.58,19.8594 Q176.9862,19.5781 176.3612,19.5781 Q175.0175,19.5781 174.33,20.6563 Q173.6425,21.7188 173.6425,23.8125 Q173.6425,25.9063 174.33,26.9844 Q175.0175,28.0469 176.3612,28.0469 Q176.9862,28.0469 177.58,27.7813 Q178.1737,27.5 178.7987,26.9219 L178.7987,29.6406 Z "/><text fill="#000000" font-family="sans-serif" font-size="12" lengthAdjust="spacingAndGlyphs" textLength="30" x="196.33" y="28.1543">main</text><line style="stroke: #A80036; stroke-width: 1.5;" x1="119.58" x2="270.58" y1="40" y2="40"/><text fill="#000000" font-family="sans-serif" font-size="11" lengthAdjust="spacingAndGlyphs" textLength="141" x="124.58" y="54.2104">+greeting : out_Greeting</text><line style="stroke: #A80036; stroke-width: 1.0;" x1="119.58" x2="270.58" y1="60.8047" y2="60.8047"/><text fill="#000000" font-family="sans-serif" font-size="11" lengthAdjust="spacingAndGlyphs" textLength="71" x="124.58" y="75.0151">+main() : int</text><path d="M306.58,9.5 L306.58,41 L271.95,45 L306.58,49 L306.58,80.0313 A0,0 0 0 0 306.58,80.0313 L563.58,80.0313 A0,0 0 0 0 563.58,80.0313 L563.58,19.5 L553.58,9.5 L306.58,9.5 A0,0 0 0 0 306.58,9.5 " fill="#FBFB77" filter="url(#fqtaviry56p4a)" style="stroke: #A80036; stroke-width: 1.0;"/><path d="M553.58,9.5 L553.58,19.5 L563.58,19.5 L553.58,9.5 " fill="#FBFB77" style="stroke: #A80036; stroke-width: 1.0;"/><text fill="#000000" font-family="sans-serif" font-size="13" lengthAdjust="spacingAndGlyphs" textLength="43" x="312.58" y="26.5669">main.c</text><text fill="#000000" font-family="sans-serif" font-size="13" lengthAdjust="spacingAndGlyphs" textLength="224" x="312.58" y="41.6997">import/output/_.out       (stem: out)</text><text fill="#000000" font-family="sans-serif" font-size="13" lengthAdjust="spacingAndGlyphs" textLength="236" x="312.58" y="56.8325">import/output/stdout.std  (stem: std)</text><text fill="#000000" font-family="sans-serif" font-size="13" lengthAdjust="spacingAndGlyphs" textLength="225" x="312.58" y="71.9653">import/output/null.null   (stem: null)</text><!--MD5=[7be34b2c165836a34919d87ed60a2f03]
link Stdout to IOutput--><path d="M195.08,254 C195.08,275.2 195.08,301.86 195.08,325.58 " fill="none" id="Stdout-&gt;IOutput" style="stroke: #A80036; stroke-width: 1.0; stroke-dasharray: 7.0,7.0;"/><polygon fill="none" points="202.08,325.89,195.08,345.89,188.08,325.89,202.08,325.89" style="stroke: #A80036; stroke-width: 1.0;"/><text fill="#000000" font-family="sans-serif" font-size="13" lengthAdjust="spacingAndGlyphs" textLength="77" x="206.08" y="297.0669">conforms to</text><text fill="#000000" font-family="sans-serif" font-size="13" lengthAdjust="spacingAndGlyphs" textLength="97" x="196.08" y="312.1997">(import/export)</text><!--MD5=[5e1aa4fb8aede40402cbd0c784a4fb1f]
link Null to IOutput--><path d="M618.47,248.71 C612.59,250.52 606.76,252.29 601.08,254 C463.74,295.26 420.75,293.46 279.59,345.55 " fill="none" id="Null-&gt;IOutput" style="stroke: #A80036; stroke-width: 1.0; stroke-dasharray: 7.0,7.0;"/><polygon fill="none" points="281.64,352.26,260.45,352.72,276.73,339.15,281.64,352.26" style="stroke: #A80036; stroke-width: 1.0;"/><text fill="#000000" font-family="sans-serif" font-size="13" lengthAdjust="spacingAndGlyphs" textLength="77" x="499.08" y="297.0669">conforms to</text><text fill="#000000" font-family="sans-serif" font-size="13" lengthAdjust="spacingAndGlyphs" textLength="97" x="489.08" y="312.1997">(import/export)</text><!--MD5=[f01777a66025211cad14bbd17e7deace]
link Main to IOutput--><path d="M118.12,80.37 C80.65,101.55 39.21,132.63 18.08,174 C1.9,205.66 2.08,222.25 18.08,254 C40.48,298.45 85.88,331.57 125.09,353.39 " fill="none" id="Main-&gt;IOutput" style="stroke: #A80036; stroke-width: 1.0; stroke-dasharray: 7.0,7.0;"/><polygon fill="#A80036" points="129.84,356,123.8651,348.1706,125.4538,353.5997,120.0246,355.1885,129.84,356" style="stroke: #A80036; stroke-width: 1.0;"/><text fill="#000000" font-family="sans-serif" font-size="13" lengthAdjust="spacingAndGlyphs" textLength="49" x="19.08" y="211.0669">imports</text><text fill="#000000" font-family="sans-serif" font-size="13" lengthAdjust="spacingAndGlyphs" textLength="0" x="45.58" y="226.1997"/><text fill="#000000" font-family="sans-serif" font-size="13" lengthAdjust="spacingAndGlyphs" textLength="62" x="60.1709" y="350.102">stem: out</text><!--MD5=[0d839772bc495153cf89e91e032d9acd]
link Main to Stdout--><path d="M195.08,82.24 C195.08,107.6 195.08,141.63 195.08,168.62 " fill="none" id="Main-&gt;Stdout" style="stroke: #A80036; stroke-width: 1.0; stroke-dasharray: 7.0,7.0;"/><polygon fill="#A80036" points="195.08,173.92,199.08,164.92,195.08,168.92,191.08,164.92,195.08,173.92" style="stroke: #A80036; stroke-width: 1.0;"/><text fill="#000000" font-family="sans-serif" font-size="13" lengthAdjust="spacingAndGlyphs" textLength="49" x="196.08" y="125.0669">imports</text><text fill="#000000" font-family="sans-serif" font-size="13" lengthAdjust="spacingAndGlyphs" textLength="0" x="222.58" y="140.1997"/><text fill="#000000" font-family="sans-serif" font-size="13" lengthAdjust="spacingAndGlyphs" textLength="61" x="128.8378" y="162.8594">stem: std</text><!--MD5=[5afd970ff60670338df511f1e7ea344a]
link Main to Null--><path d="M271.59,75.88 C277.49,78 283.37,80.07 289.08,82 C426.02,128.33 462.83,131.71 601.08,174 C605.16,175.25 609.31,176.53 613.51,177.82 " fill="none" id="Main-&gt;Null" style="stroke: #A80036; stroke-width: 1.0; stroke-dasharray: 7.0,7.0;"/><polygon fill="#A80036" points="618.45,179.35,611.0406,172.8615,613.6748,177.8676,608.6687,180.5017,618.45,179.35" style="stroke: #A80036; stroke-width: 1.0;"/><text fill="#000000" font-family="sans-serif" font-size="13" lengthAdjust="spacingAndGlyphs" textLength="49" x="493.08" y="125.0669">imports</text><text fill="#000000" font-family="sans-serif" font-size="13" lengthAdjust="spacingAndGlyphs" textLength="0" x="519.58" y="140.1997"/><text fill="#000000" font-family="sans-serif" font-size="13" lengthAdjust="spacingAndGlyphs" textLength="63" x="573.5657" y="162.8786">stem: null</text><!--MD5=[7e929eadead50dec2580a08cc928f862]
@startuml hello_world

skinparam classAttributeIconSize 0

interface "output / _" as IOutput <<parcel _>> {
  + {typedef} Greeting
  + {typedef} Output
}
note right of IOutput
  output.c
  #pragma parcel _ { Greeting Output }
  export/output
end note

class "output / stdout" as Stdout <<parcel stdout>> {
  + output : out_Output
  - -
  - print(greeting : out_Greeting) : void
}
note right of Stdout
  output/stdout.c
  import/output/_.out
  #pragma parcel stdout { output }
  export/output/stdout
end note

class "output / null" as Null <<parcel null>> {
  + output : out_Output
  - -
  - null(greeting : out_Greeting) : void
}
note right of Null
  output/null.c
  import/output/_.out
  #pragma parcel null { output }
  export/output/null
end note

class "main" as Main {
  + greeting : out_Greeting
  - -
  + main() : int
}
note right of Main
  main.c
  import/output/_.out       (stem: out)
  import/output/stdout.std  (stem: std)
  import/output/null.null   (stem: null)
end note

Stdout ..|> IOutput : conforms to\n(import/export)
Null   ..|> IOutput : conforms to\n(import/export)

Main ..> IOutput : imports\n«stem: out»
Main ..> Stdout  : imports\n«stem: std»
Main ..> Null    : imports\n«stem: null»

@enduml

PlantUML version 1.2020.02(Sun Mar 01 05:22:07 EST 2020)
(GPL source distribution)
Java Runtime: OpenJDK Runtime Environment
JVM: OpenJDK 64-Bit Server VM
Java Version: 21.0.10+7-Debian-1deb13u1
Operating System: Linux
Default Encoding: UTF-8
Language: en
Country: US
--></g></svg>